<?xml version="1.0" standalone="no"?>
<!DOCTYPE svg PUBLIC "-//W3C//DTD SVG 20010904//EN"
 "http://www.w3.org/TR/2001/REC-SVG-20010904/DTD/svg10.dtd">
<svg version="1.0" xmlns="http://www.w3.org/2000/svg"
 width="260.000000pt" height="260.000000pt" viewBox="0 0 260.000000 260.000000"
 preserveAspectRatio="xMidYMid meet">
<metadata>
Created by potrace 1.11, written by Peter Selinger 2001-2013
</metadata>
<g transform="translate(0.000000,260.000000) scale(0.100000,-0.100000)"
fill="#000000" stroke="none">
<path d="M70 2217 c0 -10 1 -11 100 -97 41 -36 89 -77 105 -92 l30 -28 278 0
277 0 -1 -687 c0 -388 -5 -714 -10 -748 -13 -80 -51 -155 -93 -183 -79 -54
-224 -68 -356 -36 l-70 17 -47 -39 c-164 -133 -222 -183 -216 -187 5 -3 40 -8
78 -12 39 -4 77 -8 85 -10 8 -2 49 -6 90 -10 41 -3 83 -9 93 -11 46 -14 229
-12 294 3 219 50 349 200 389 451 5 28 9 1552 5 1657 -1 20 -6 20 -516 20
-283 0 -515 -4 -515 -8z"/>
<path d="M1548 2219 c-7 -4 -85 -32 -173 -62 -88 -30 -173 -60 -188 -66 l-28
-11 2 -904 3 -904 211 -81 211 -82 100 6 c125 7 174 13 246 30 194 48 359 168
472 343 25 39 46 73 46 76 0 2 15 37 34 78 30 66 66 184 81 263 25 138 25 415
0 535 -3 14 -8 39 -11 55 -21 119 -102 306 -173 400 -144 189 -338 295 -591
321 -95 10 -227 11 -242 3z m152 -243 c151 -11 231 -37 355 -118 139 -89 247
-299 271 -524 9 -84 9 -284 0 -339 -24 -153 -44 -223 -85 -304 -97 -188 -258
-295 -496 -327 -87 -11 -335 -11 -336 0 -1 6 -2 371 -3 811 l-1 800 40 5 c44
6 141 4 255 -4z"/>
</g>
</svg>
